<?xml version="1.0" encoding="UTF-8" standalone="no"?>
<svg xmlns="http://www.w3.org/2000/svg" width="256" height="256" viewBox="0 0 256 256">
  <rect width="256" height="256" fill="#2D2D30" rx="32" ry="32"/>
  <g transform="translate(128, 128) scale(0.8)">
    <!-- Unity Logo (simplified) -->
    <polygon points="0,-80 -69.3,-24 -69.3,24 0,80 69.3,24 69.3,-24" fill="#222222" stroke="#FFFFFF" stroke-width="6"/>
    
    <!-- Broom -->
    <g transform="rotate(45)">
      <rect x="-10" y="-80" width="20" height="100" fill="#0078D7"/>
      <rect x="-40" y="-100" width="80" height="30" rx="5" ry="5" fill="#0078D7"/>
      <g transform="translate(0, -100)">
        <rect x="-35" y="0" width="5" height="25" fill="#FFFFFF"/>
        <rect x="-25" y="0" width="5" height="25" fill="#FFFFFF"/>
        <rect x="-15" y="0" width="5" height="25" fill="#FFFFFF"/>
        <rect x="-5" y="0" width="5" height="25" fill="#FFFFFF"/>
        <rect x="5" y="0" width="5" height="25" fill="#FFFFFF"/>
        <rect x="15" y="0" width="5" height="25" fill="#FFFFFF"/>
        <rect x="25" y="0" width="5" height="25" fill="#FFFFFF"/>
      </g>
    </g>
  </g>
</svg>
